<svg xmlns="http://www.w3.org/2000/svg" viewBox="0 0 24 24" fill="white" width="24" height="24">
  <!-- WhatsApp icon -->
  <path d="M17.472 14.382c-.297-.149-1.758-.867-2.03-.967-.273-.099-.471-.148-.67.15-.197.297-.767.966-.94 1.164-.173.199-.347.223-.644.075-.297-.15-1.255-.463-2.39-1.475-.883-.788-1.48-1.761-1.653-2.059-.173-.297-.018-.458.13-.606.134-.133.298-.347.446-.52.149-.174.198-.298.298-.497.099-.198.05-.371-.025-.52-.075-.149-.669-1.612-.916-2.207-.242-.579-.487-.5-.67-.51-.173-.008-.371-.01-.57-.01-.198 0-.52.074-.792.372-.272.297-1.04 1.016-1.04 2.479 0 1.462 1.065 2.875 1.213 3.074.149.198 2.096 3.2 5.076 4.487.709.306 1.262.489 1.694.625.712.227 1.36.195 1.871.118.571-.085 1.758-.719 2.006-1.413.248-.694.248-1.289.173-1.413-.074-.124-.272-.198-.57-.347m-5.421-7.403h-.004c-3.183 0-5.976 2.783-5.976 6.199 0 1.291.346 2.519 1.007 3.584l-1.06 3.875 3.98-1.045c1.05.576 2.244.873 3.49.873h.004c3.183 0 5.977-2.783 5.977-6.199 0-1.654-.433-3.207-1.256-4.581-1.138-1.982-3.155-3.307-5.48-3.307zM19.85 3.008C17.79 1.014 14.98.004 12.064.004 5.864.004.608 5.233.608 11.431c0 2.053.552 4.07 1.598 5.82L.415 23.996l6.387-1.675c1.695.925 3.607 1.414 5.568 1.414h.004c6.201 0 11.452-5.228 11.452-11.427 0-3.077-.799-5.977-2.315-8.509z"/>
</svg>
